<svg width="48" height="48" viewBox="0 0 24 24" fill="none" xmlns="http://www.w3.org/2000/svg"><rect width="24" height="24" fill="none" rx="0" ry="0"></rect><path fill-rule="evenodd" clip-rule="evenodd" d="M8.58053 6.88867H14.4389C14.8335 6.88867 15.2016 6.71191 15.4497 6.40381C15.688 6.10693 15.7778 5.72705 15.6977 5.36084C15.2671 3.41357 13.5063 2 11.5092 2C9.51217 2 7.75045 3.41357 7.32174 5.35986C7.24069 5.72559 7.33053 6.10547 7.56881 6.40234C7.81686 6.71143 8.18502 6.88867 8.58053 6.88867ZM11.5092 3.2002C12.9477 3.2002 14.2163 4.21777 14.5141 5.65186C14.4995 5.66943 14.4721 5.68848 14.4389 5.68848H8.58053L8.49362 5.61914C8.80221 4.21777 10.0708 3.2002 11.5092 3.2002Z" fill="#fd6600"></path><path fill-rule="evenodd" clip-rule="evenodd" d="M15.2818 8.979L16.9878 19.8218C17.0884 20.4629 16.94 21.0723 16.5796 21.4941C16.2964 21.8247 15.9077 22.0068 15.4839 22.0068H7.53469C7.11086 22.0068 6.72219 21.8247 6.43899 21.4941C6.07864 21.0723 5.9302 20.4629 6.03078 19.8218L7.73684 8.97754C7.83547 8.35449 8.42629 7.88525 9.11282 7.88525H13.9068C14.5943 7.88525 15.1851 8.35547 15.2818 8.979ZM15.4839 20.8066C15.5327 20.8066 15.5972 20.7964 15.6675 20.7144C15.7681 20.5967 15.856 20.3491 15.8023 20.0083L14.0962 9.16406C14.0874 9.14893 14.0113 9.08545 13.9068 9.08545H9.11282C9.00735 9.08545 8.93117 9.14941 8.91946 9.17334L7.21633 20.0083C7.16262 20.3491 7.25051 20.5967 7.3511 20.7144C7.42141 20.7964 7.48586 20.8066 7.53469 20.8066H9.37844V19.6768C9.37844 19.3452 9.64699 19.0767 9.97805 19.0767C10.3091 19.0767 10.5777 19.3452 10.5777 19.6768V20.8066H12.4419V19.6768C12.4419 19.3452 12.7105 19.0767 13.0415 19.0767C13.3726 19.0767 13.6411 19.3452 13.6411 19.6768V20.8066H15.4839ZM11.8271 14.0633L11.8287 14.0635L11.83 14.0637C12.118 14.1042 12.5128 14.1597 12.8824 14.5112C13.4019 15.0049 13.5914 15.6275 13.4009 16.2183C13.2212 16.7774 12.7867 17.2222 12.1773 17.4702C11.898 17.583 11.6246 17.627 11.3687 17.627C10.5289 17.627 9.87456 17.1543 9.78374 17.085C9.51909 16.8848 9.46733 16.5083 9.66753 16.2446C9.8687 15.979 10.2457 15.9292 10.5083 16.1289C10.5142 16.1333 11.1382 16.5952 11.7251 16.3584C12.0074 16.2437 12.1871 16.0733 12.2583 15.8516C12.315 15.6753 12.1792 15.4985 12.0562 15.3814C11.9732 15.3023 11.9068 15.2861 11.6617 15.252L11.6595 15.2517C11.3765 15.2117 10.9897 15.157 10.5601 14.853C10.0259 14.4756 9.69682 13.8076 9.72221 13.1514C9.75151 12.3775 10.2623 11.7905 10.731 11.499C11.4166 11.0742 12.2867 11.0723 13.0015 11.4912C13.2876 11.6587 13.3833 12.0264 13.2154 12.3125C13.0484 12.5982 12.6822 12.6963 12.3941 12.5264C12.065 12.333 11.6695 12.3296 11.3638 12.5191C11.3208 12.5454 10.9361 12.7954 10.9214 13.1973C10.9117 13.4546 11.0445 13.7261 11.2535 13.8731C11.4454 14.0095 11.6062 14.0321 11.8271 14.0633Z" fill="#000000"></path><path fill-rule="evenodd" clip-rule="evenodd" d="M11.8287 14.0635C11.607 14.0322 11.4458 14.0098 11.2535 13.8731C11.0445 13.7261 10.9117 13.4546 10.9214 13.1973C10.9361 12.7954 11.3208 12.5454 11.3638 12.5191C11.6695 12.3296 12.065 12.333 12.3941 12.5264C12.6822 12.6963 13.0484 12.5982 13.2154 12.3125C13.3833 12.0264 13.2876 11.6587 13.0015 11.4912C12.2867 11.0723 11.4166 11.0742 10.731 11.499C10.2623 11.7905 9.75151 12.3775 9.72221 13.1514C9.69682 13.8076 10.0259 14.4756 10.5601 14.853C10.9908 15.1577 11.3785 15.2119 11.6617 15.252C11.9068 15.2861 11.9732 15.3023 12.0562 15.3814C12.1792 15.4985 12.315 15.6753 12.2583 15.8516C12.1871 16.0733 12.0074 16.2437 11.7251 16.3584C11.1382 16.5952 10.5142 16.1333 10.5083 16.1289C10.2457 15.9292 9.8687 15.979 9.66753 16.2446C9.46733 16.5083 9.51909 16.8848 9.78374 17.085C9.87456 17.1543 10.5289 17.627 11.3687 17.627C11.6246 17.627 11.898 17.583 12.1773 17.4702C12.7867 17.2222 13.2212 16.7774 13.4009 16.2183C13.5914 15.6275 13.4019 15.0049 12.8824 14.5112C12.5123 14.1592 12.1167 14.104 11.8287 14.0635Z" fill="black" fill-opacity="0.3"></path></svg>